Source = Countdown to 155 (1080i)

General
Format                                    : Matroska
Format version                            : Version 4 / Version 2
File size                                 : 1.61 GiB
Duration                                  : 42mn 3s
Overall bit rate                          : 5 481 Kbps
Encoded date                              : UTC 2010-02-22 21:41:31
Writing application                       : mkvmerge v5.9.0
Writing library                           : libebml v1.3.0 + libmatroska v1.4.0

Video
ID                                        : 1
Format                                    : AVC
Format/Info                               : Advanced Video Codec
Format profile                            : High@L4.1
Format settings, CABAC                    : Yes
Format settings, ReFrames                 : 8 frames
Codec ID                                  : V_MPEG4/ISO/AVC
Duration                                  : 42mn 3s
Bit rate                                  : 4 988 Kbps
Width                                     : 1 280 pixels
Height                                    : 720 pixels
Display aspect ratio                      : 16:9
Original display aspect ratio             : 16:9
Frame rate mode                           : Constant
Frame rate                                : 29.970 fps
Color space                               : YUV
Chroma subsampling                        : 4:2:0
Bit depth                                 : 8 bits
Scan type                                 : Progressive
Bits/(Pixel*Frame)                        : 0.181
Stream size                               : 1.47 GiB (91%)
Writing library                           : x264 core 120
Language                                  : English
Default                                   : Yes
Forced                                    : No
Color primaries                           : BT.709
Transfer characteristics                  : BT.709
Matrix coefficients                       : BT.709

Audio
ID                                        : 2
Format                                    : AC-3
Format/Info                               : Audio Coding 3
Mode extension                            : CM (complete main)
Format settings, Endianness               : Big
Codec ID                                  : A_AC3
Duration                                  : 42mn 3s
Bit rate mode                             : Constant
Bit rate                                  : 384 Kbps
Channel(s)                                : 2 channels
Channel positions                         : Front: L R
Sampling rate                             : 48.0 KHz
Bit depth                                 : 16 bits
Compression mode                          : Lossy
Stream size                               : 115 MiB (7%)
Language                                  : English
Default                                   : Yes
Forced                                    : No